<svg width="571" height="571" viewBox="0 0 571 571" fill="none" xmlns="http://www.w3.org/2000/svg">
<path d="M571 285.5C571 443.177 443.177 571 285.5 571C127.823 571 0 443.177 0 285.5C0 127.823 127.823 0 285.5 0C443.177 0 571 127.823 571 285.5Z" fill="#060606"/>
<path d="M157.125 165.75C164.195 165.75 169.75 160.195 169.75 153.125C169.75 146.055 164.195 140.5 157.125 140.5C150.055 140.5 144.5 146.055 144.5 153.125C144.5 160.195 150.055 165.75 157.125 165.75ZM333.875 165.75C340.945 165.75 346.5 160.195 346.5 153.125C346.5 146.055 340.945 140.5 333.875 140.5C326.805 140.5 321.25 146.055 321.25 153.125C321.25 160.195 326.805 165.75 333.875 165.75ZM232.875 165.75C239.945 165.75 245.5 160.195 245.5 153.125C245.5 146.055 239.945 140.5 232.875 140.5C225.805 140.5 220.25 146.055 220.25 153.125C220.25 160.195 225.805 165.75 232.875 165.75ZM258.125 165.75C265.195 165.75 270.75 160.195 270.75 153.125C270.75 146.055 265.195 140.5 258.125 140.5C251.055 140.5 245.5 146.055 245.5 153.125C245.5 160.195 251.055 165.75 258.125 165.75ZM283.375 165.75C290.445 165.75 296 160.195 296 153.125C296 146.055 290.445 140.5 283.375 140.5C276.305 140.5 270.75 146.055 270.75 153.125C270.75 160.195 276.305 165.75 283.375 165.75ZM308.625 165.75C315.695 165.75 321.25 160.195 321.25 153.125C321.25 146.055 315.695 140.5 308.625 140.5C301.555 140.5 296 146.055 296 153.125C296 160.195 301.555 165.75 308.625 165.75ZM207.625 165.75C214.695 165.75 220.25 160.195 220.25 153.125C220.25 146.055 214.695 140.5 207.625 140.5C200.555 140.5 195 146.055 195 153.125C195 160.195 200.555 165.75 207.625 165.75ZM182.375 165.75C189.445 165.75 195 160.195 195 153.125C195 146.055 189.445 140.5 182.375 140.5C175.305 140.5 169.75 146.055 169.75 153.125C169.75 160.195 175.305 165.75 182.375 165.75ZM182.375 191C189.445 191 195 185.445 195 178.375C195 171.305 189.445 165.75 182.375 165.75C175.305 165.75 169.75 171.305 169.75 178.375C169.75 185.445 175.305 191 182.375 191ZM232.875 191C239.945 191 245.5 185.445 245.5 178.375C245.5 171.305 239.945 165.75 232.875 165.75C225.805 165.75 220.25 171.305 220.25 178.375C220.25 185.445 225.805 191 232.875 191ZM333.875 191C340.945 191 346.5 185.445 346.5 178.375C346.5 171.305 340.945 165.75 333.875 165.75C326.805 165.75 321.25 171.305 321.25 178.375C321.25 185.445 326.805 191 333.875 191ZM157.125 191C164.195 191 169.75 185.445 169.75 178.375C169.75 171.305 164.195 165.75 157.125 165.75C150.055 165.75 144.5 171.305 144.5 178.375C144.5 185.445 150.055 191 157.125 191ZM308.625 191C315.695 191 321.25 185.445 321.25 178.375C321.25 171.305 315.695 165.75 308.625 165.75C301.555 165.75 296 171.305 296 178.375C296 185.445 301.555 191 308.625 191ZM283.375 191C290.445 191 296 185.445 296 178.375C296 171.305 290.445 165.75 283.375 165.75C276.305 165.75 270.75 171.305 270.75 178.375C270.75 185.445 276.305 191 283.375 191ZM258.125 191C265.195 191 270.75 185.445 270.75 178.375C270.75 171.305 265.195 165.75 258.125 165.75C251.055 165.75 245.5 171.305 245.5 178.375C245.5 185.445 251.055 191 258.125 191ZM207.625 191C214.695 191 220.25 185.445 220.25 178.375C220.25 171.305 214.695 165.75 207.625 165.75C200.555 165.75 195 171.305 195 178.375C195 185.445 200.555 191 207.625 191ZM182.375 216.25C189.445 216.25 195 210.695 195 203.625C195 196.555 189.445 191 182.375 191C175.305 191 169.75 196.555 169.75 203.625C169.75 210.695 175.305 216.25 182.375 216.25ZM232.875 216.25C239.945 216.25 245.5 210.695 245.5 203.625C245.5 196.555 239.945 191 232.875 191C225.805 191 220.25 196.555 220.25 203.625C220.25 210.695 225.805 216.25 232.875 216.25ZM157.125 216.25C164.195 216.25 169.75 210.695 169.75 203.625C169.75 196.555 164.195 191 157.125 191C150.055 191 144.5 196.555 144.5 203.625C144.5 210.695 150.055 216.25 157.125 216.25ZM207.625 216.25C214.695 216.25 220.25 210.695 220.25 203.625C220.25 196.555 214.695 191 207.625 191C200.555 191 195 196.555 195 203.625C195 210.695 200.555 216.25 207.625 216.25ZM232.875 241.5C239.945 241.5 245.5 235.945 245.5 228.875C245.5 221.805 239.945 216.25 232.875 216.25C225.805 216.25 220.25 221.805 220.25 228.875C220.25 235.945 225.805 241.5 232.875 241.5ZM207.625 241.5C214.695 241.5 220.25 235.945 220.25 228.875C220.25 221.805 214.695 216.25 207.625 216.25C200.555 216.25 195 221.805 195 228.875C195 235.945 200.555 241.5 207.625 241.5ZM157.125 241.5C164.195 241.5 169.75 235.945 169.75 228.875C169.75 221.805 164.195 216.25 157.125 216.25C150.055 216.25 144.5 221.805 144.5 228.875C144.5 235.945 150.055 241.5 157.125 241.5ZM182.375 241.5C189.445 241.5 195 235.945 195 228.875C195 221.805 189.445 216.25 182.375 216.25C175.305 216.25 169.75 221.805 169.75 228.875C169.75 235.945 175.305 241.5 182.375 241.5ZM258.125 266.75C265.195 266.75 270.75 261.195 270.75 254.125C270.75 247.055 265.195 241.5 258.125 241.5C251.055 241.5 245.5 247.055 245.5 254.125C245.5 261.195 251.055 266.75 258.125 266.75ZM333.875 266.75C340.945 266.75 346.5 261.195 346.5 254.125C346.5 247.055 340.945 241.5 333.875 241.5C326.805 241.5 321.25 247.055 321.25 254.125C321.25 261.195 326.805 266.75 333.875 266.75ZM232.875 266.75C239.945 266.75 245.5 261.195 245.5 254.125C245.5 247.055 239.945 241.5 232.875 241.5C225.805 241.5 220.25 247.055 220.25 254.125C220.25 261.195 225.805 266.75 232.875 266.75ZM283.375 266.75C290.445 266.75 296 261.195 296 254.125C296 247.055 290.445 241.5 283.375 241.5C276.305 241.5 270.75 247.055 270.75 254.125C270.75 261.195 276.305 266.75 283.375 266.75ZM308.625 266.75C315.695 266.75 321.25 261.195 321.25 254.125C321.25 247.055 315.695 241.5 308.625 241.5C301.555 241.5 296 247.055 296 254.125C296 261.195 301.555 266.75 308.625 266.75ZM157.125 266.75C164.195 266.75 169.75 261.195 169.75 254.125C169.75 247.055 164.195 241.5 157.125 241.5C150.055 241.5 144.5 247.055 144.5 254.125C144.5 261.195 150.055 266.75 157.125 266.75ZM182.375 266.75C189.445 266.75 195 261.195 195 254.125C195 247.055 189.445 241.5 182.375 241.5C175.305 241.5 169.75 247.055 169.75 254.125C169.75 261.195 175.305 266.75 182.375 266.75ZM207.625 266.75C214.695 266.75 220.25 261.195 220.25 254.125C220.25 247.055 214.695 241.5 207.625 241.5C200.555 241.5 195 247.055 195 254.125C195 261.195 200.555 266.75 207.625 266.75ZM333.875 292C340.945 292 346.5 286.445 346.5 279.375C346.5 272.305 340.945 266.75 333.875 266.75C326.805 266.75 321.25 272.305 321.25 279.375C321.25 286.445 326.805 292 333.875 292ZM182.375 292C189.445 292 195 286.445 195 279.375C195 272.305 189.445 266.75 182.375 266.75C175.305 266.75 169.75 272.305 169.75 279.375C169.75 286.445 175.305 292 182.375 292ZM157.125 292C164.195 292 169.75 286.445 169.75 279.375C169.75 272.305 164.195 266.75 157.125 266.75C150.055 266.75 144.5 272.305 144.5 279.375C144.5 286.445 150.055 292 157.125 292ZM308.625 292C315.695 292 321.25 286.445 321.25 279.375C321.25 272.305 315.695 266.75 308.625 266.75C301.555 266.75 296 272.305 296 279.375C296 286.445 301.555 292 308.625 292ZM283.375 292C290.445 292 296 286.445 296 279.375C296 272.305 290.445 266.75 283.375 266.75C276.305 266.75 270.75 272.305 270.75 279.375C270.75 286.445 276.305 292 283.375 292ZM232.875 292C239.945 292 245.5 286.445 245.5 279.375C245.5 272.305 239.945 266.75 232.875 266.75C225.805 266.75 220.25 272.305 220.25 279.375C220.25 286.445 225.805 292 232.875 292ZM207.625 292C214.695 292 220.25 286.445 220.25 279.375C220.25 272.305 214.695 266.75 207.625 266.75C200.555 266.75 195 272.305 195 279.375C195 286.445 200.555 292 207.625 292ZM258.125 292C265.195 292 270.75 286.445 270.75 279.375C270.75 272.305 265.195 266.75 258.125 266.75C251.055 266.75 245.5 272.305 245.5 279.375C245.5 286.445 251.055 292 258.125 292ZM157.125 317.25C164.195 317.25 169.75 311.695 169.75 304.625C169.75 297.555 164.195 292 157.125 292C150.055 292 144.5 297.555 144.5 304.625C144.5 311.695 150.055 317.25 157.125 317.25ZM182.375 317.25C189.445 317.25 195 311.695 195 304.625C195 297.555 189.445 292 182.375 292C175.305 292 169.75 297.555 169.75 304.625C169.75 311.695 175.305 317.25 182.375 317.25ZM207.625 317.25C214.695 317.25 220.25 311.695 220.25 304.625C220.25 297.555 214.695 292 207.625 292C200.555 292 195 297.555 195 304.625C195 311.695 200.555 317.25 207.625 317.25ZM232.875 317.25C239.945 317.25 245.5 311.695 245.5 304.625C245.5 297.555 239.945 292 232.875 292C225.805 292 220.25 297.555 220.25 304.625C220.25 311.695 225.805 317.25 232.875 317.25ZM157.125 342.5C164.195 342.5 169.75 336.945 169.75 329.875C169.75 322.805 164.195 317.25 157.125 317.25C150.055 317.25 144.5 322.805 144.5 329.875C144.5 336.945 150.055 342.5 157.125 342.5ZM182.375 342.5C189.445 342.5 195 336.945 195 329.875C195 322.805 189.445 317.25 182.375 317.25C175.305 317.25 169.75 322.805 169.75 329.875C169.75 336.945 175.305 342.5 182.375 342.5ZM207.625 342.5C214.695 342.5 220.25 336.945 220.25 329.875C220.25 322.805 214.695 317.25 207.625 317.25C200.555 317.25 195 322.805 195 329.875C195 336.945 200.555 342.5 207.625 342.5ZM232.875 342.5C239.945 342.5 245.5 336.945 245.5 329.875C245.5 322.805 239.945 317.25 232.875 317.25C225.805 317.25 220.25 322.805 220.25 329.875C220.25 336.945 225.805 342.5 232.875 342.5ZM157.125 367.75C164.195 367.75 169.75 362.195 169.75 355.125C169.75 348.055 164.195 342.5 157.125 342.5C150.055 342.5 144.5 348.055 144.5 355.125C144.5 362.195 150.055 367.75 157.125 367.75ZM232.875 367.75C239.945 367.75 245.5 362.195 245.5 355.125C245.5 348.055 239.945 342.5 232.875 342.5C225.805 342.5 220.25 348.055 220.25 355.125C220.25 362.195 225.805 367.75 232.875 367.75ZM182.375 367.75C189.445 367.75 195 362.195 195 355.125C195 348.055 189.445 342.5 182.375 342.5C175.305 342.5 169.75 348.055 169.75 355.125C169.75 362.195 175.305 367.75 182.375 367.75ZM207.625 367.75C214.695 367.75 220.25 362.195 220.25 355.125C220.25 348.055 214.695 342.5 207.625 342.5C200.555 342.5 195 348.055 195 355.125C195 362.195 200.555 367.75 207.625 367.75ZM157.125 393C164.195 393 169.75 387.445 169.75 380.375C169.75 373.305 164.195 367.75 157.125 367.75C150.055 367.75 144.5 373.305 144.5 380.375C144.5 387.445 150.055 393 157.125 393ZM207.625 393C214.695 393 220.25 387.445 220.25 380.375C220.25 373.305 214.695 367.75 207.625 367.75C200.555 367.75 195 373.305 195 380.375C195 387.445 200.555 393 207.625 393ZM232.875 393C239.945 393 245.5 387.445 245.5 380.375C245.5 373.305 239.945 367.75 232.875 367.75C225.805 367.75 220.25 373.305 220.25 380.375C220.25 387.445 225.805 393 232.875 393ZM182.375 393C189.445 393 195 387.445 195 380.375C195 373.305 189.445 367.75 182.375 367.75C175.305 367.75 169.75 373.305 169.75 380.375C169.75 387.445 175.305 393 182.375 393Z" fill="white"/>
<path d="M280.781 345.188C284.229 345.188 286.938 342.479 286.938 339.031C286.938 335.584 284.229 332.875 280.781 332.875C277.334 332.875 274.625 335.584 274.625 339.031C274.625 342.479 277.334 345.188 280.781 345.188ZM403.906 345.188C407.354 345.188 410.062 342.479 410.062 339.031C410.062 335.584 407.354 332.875 403.906 332.875C400.459 332.875 397.75 335.584 397.75 339.031C397.75 342.479 400.459 345.188 403.906 345.188ZM391.594 345.188C395.041 345.188 397.75 342.479 397.75 339.031C397.75 335.584 395.041 332.875 391.594 332.875C388.146 332.875 385.438 335.584 385.438 339.031C385.438 342.479 388.146 345.188 391.594 345.188ZM379.281 345.188C382.729 345.188 385.438 342.479 385.438 339.031C385.438 335.584 382.729 332.875 379.281 332.875C375.834 332.875 373.125 335.584 373.125 339.031C373.125 342.479 375.834 345.188 379.281 345.188ZM366.969 345.188C370.416 345.188 373.125 342.479 373.125 339.031C373.125 335.584 370.416 332.875 366.969 332.875C363.521 332.875 360.812 335.584 360.812 339.031C360.812 342.479 363.521 345.188 366.969 345.188ZM317.719 345.188C321.166 345.188 323.875 342.479 323.875 339.031C323.875 335.584 321.166 332.875 317.719 332.875C314.271 332.875 311.562 335.584 311.562 339.031C311.562 342.479 314.271 345.188 317.719 345.188ZM305.406 345.188C308.854 345.188 311.562 342.479 311.562 339.031C311.562 335.584 308.854 332.875 305.406 332.875C301.959 332.875 299.25 335.584 299.25 339.031C299.25 342.479 301.959 345.188 305.406 345.188ZM293.094 345.188C296.541 345.188 299.25 342.479 299.25 339.031C299.25 335.584 296.541 332.875 293.094 332.875C289.646 332.875 286.938 335.584 286.938 339.031C286.938 342.479 289.646 345.188 293.094 345.188ZM280.781 357.5C284.229 357.5 286.938 354.791 286.938 351.344C286.938 347.896 284.229 345.188 280.781 345.188C277.334 345.188 274.625 347.896 274.625 351.344C274.625 354.791 277.334 357.5 280.781 357.5ZM403.906 357.5C407.354 357.5 410.062 354.791 410.062 351.344C410.062 347.896 407.354 345.188 403.906 345.188C400.459 345.188 397.75 347.896 397.75 351.344C397.75 354.791 400.459 357.5 403.906 357.5ZM317.719 357.5C321.166 357.5 323.875 354.791 323.875 351.344C323.875 347.896 321.166 345.188 317.719 345.188C314.271 345.188 311.562 347.896 311.562 351.344C311.562 354.791 314.271 357.5 317.719 357.5ZM293.094 357.5C296.541 357.5 299.25 354.791 299.25 351.344C299.25 347.896 296.541 345.188 293.094 345.188C289.646 345.188 286.938 347.896 286.938 351.344C286.938 354.791 289.646 357.5 293.094 357.5ZM305.406 357.5C308.854 357.5 311.562 354.791 311.562 351.344C311.562 347.896 308.854 345.188 305.406 345.188C301.959 345.188 299.25 347.896 299.25 351.344C299.25 354.791 301.959 357.5 305.406 357.5ZM366.969 357.5C370.416 357.5 373.125 354.791 373.125 351.344C373.125 347.896 370.416 345.188 366.969 345.188C363.521 345.188 360.812 347.896 360.812 351.344C360.812 354.791 363.521 357.5 366.969 357.5ZM379.281 357.5C382.729 357.5 385.438 354.791 385.438 351.344C385.438 347.896 382.729 345.188 379.281 345.188C375.834 345.188 373.125 347.896 373.125 351.344C373.125 354.791 375.834 357.5 379.281 357.5ZM391.594 357.5C395.041 357.5 397.75 354.791 397.75 351.344C397.75 347.896 395.041 345.188 391.594 345.188C388.146 345.188 385.438 347.896 385.438 351.344C385.438 354.791 388.146 357.5 391.594 357.5ZM366.969 369.812C370.416 369.812 373.125 367.104 373.125 363.656C373.125 360.209 370.416 357.5 366.969 357.5C363.521 357.5 360.812 360.209 360.812 363.656C360.812 367.104 363.521 369.812 366.969 369.812ZM391.594 369.812C395.041 369.812 397.75 367.104 397.75 363.656C397.75 360.209 395.041 357.5 391.594 357.5C388.146 357.5 385.438 360.209 385.438 363.656C385.438 367.104 388.146 369.812 391.594 369.812ZM379.281 369.812C382.729 369.812 385.438 367.104 385.438 363.656C385.438 360.209 382.729 357.5 379.281 357.5C375.834 357.5 373.125 360.209 373.125 363.656C373.125 367.104 375.834 369.812 379.281 369.812ZM317.719 369.812C321.166 369.812 323.875 367.104 323.875 363.656C323.875 360.209 321.166 357.5 317.719 357.5C314.271 357.5 311.562 360.209 311.562 363.656C311.562 367.104 314.271 369.812 317.719 369.812ZM330.031 369.812C333.479 369.812 336.188 367.104 336.188 363.656C336.188 360.209 333.479 357.5 330.031 357.5C326.584 357.5 323.875 360.209 323.875 363.656C323.875 367.104 326.584 369.812 330.031 369.812ZM305.406 369.812C308.854 369.812 311.562 367.104 311.562 363.656C311.562 360.209 308.854 357.5 305.406 357.5C301.959 357.5 299.25 360.209 299.25 363.656C299.25 367.104 301.959 369.812 305.406 369.812ZM293.094 369.812C296.541 369.812 299.25 367.104 299.25 363.656C299.25 360.209 296.541 357.5 293.094 357.5C289.646 357.5 286.938 360.209 286.938 363.656C286.938 367.104 289.646 369.812 293.094 369.812ZM354.656 369.812C358.104 369.812 360.812 367.104 360.812 363.656C360.812 360.209 358.104 357.5 354.656 357.5C351.209 357.5 348.5 360.209 348.5 363.656C348.5 367.104 351.209 369.812 354.656 369.812ZM391.594 382.125C395.041 382.125 397.75 379.416 397.75 375.969C397.75 372.521 395.041 369.812 391.594 369.812C388.146 369.812 385.438 372.521 385.438 375.969C385.438 379.416 388.146 382.125 391.594 382.125ZM379.281 382.125C382.729 382.125 385.438 379.416 385.438 375.969C385.438 372.521 382.729 369.812 379.281 369.812C375.834 369.812 373.125 372.521 373.125 375.969C373.125 379.416 375.834 382.125 379.281 382.125ZM293.094 382.125C296.541 382.125 299.25 379.416 299.25 375.969C299.25 372.521 296.541 369.812 293.094 369.812C289.646 369.812 286.938 372.521 286.938 375.969C286.938 379.416 289.646 382.125 293.094 382.125ZM305.406 382.125C308.854 382.125 311.562 379.416 311.562 375.969C311.562 372.521 308.854 369.812 305.406 369.812C301.959 369.812 299.25 372.521 299.25 375.969C299.25 379.416 301.959 382.125 305.406 382.125ZM317.719 382.125C321.166 382.125 323.875 379.416 323.875 375.969C323.875 372.521 321.166 369.812 317.719 369.812C314.271 369.812 311.562 372.521 311.562 375.969C311.562 379.416 314.271 382.125 317.719 382.125ZM330.031 382.125C333.479 382.125 336.188 379.416 336.188 375.969C336.188 372.521 333.479 369.812 330.031 369.812C326.584 369.812 323.875 372.521 323.875 375.969C323.875 379.416 326.584 382.125 330.031 382.125ZM366.969 382.125C370.416 382.125 373.125 379.416 373.125 375.969C373.125 372.521 370.416 369.812 366.969 369.812C363.521 369.812 360.812 372.521 360.812 375.969C360.812 379.416 363.521 382.125 366.969 382.125ZM354.656 382.125C358.104 382.125 360.812 379.416 360.812 375.969C360.812 372.521 358.104 369.812 354.656 369.812C351.209 369.812 348.5 372.521 348.5 375.969C348.5 379.416 351.209 382.125 354.656 382.125ZM379.281 394.438C382.729 394.438 385.438 391.729 385.438 388.281C385.438 384.834 382.729 382.125 379.281 382.125C375.834 382.125 373.125 384.834 373.125 388.281C373.125 391.729 375.834 394.438 379.281 394.438ZM317.719 394.438C321.166 394.438 323.875 391.729 323.875 388.281C323.875 384.834 321.166 382.125 317.719 382.125C314.271 382.125 311.562 384.834 311.562 388.281C311.562 391.729 314.271 394.438 317.719 394.438ZM305.406 394.438C308.854 394.438 311.562 391.729 311.562 388.281C311.562 384.834 308.854 382.125 305.406 382.125C301.959 382.125 299.25 384.834 299.25 388.281C299.25 391.729 301.959 394.438 305.406 394.438ZM330.031 394.438C333.479 394.438 336.188 391.729 336.188 388.281C336.188 384.834 333.479 382.125 330.031 382.125C326.584 382.125 323.875 384.834 323.875 388.281C323.875 391.729 326.584 394.438 330.031 394.438ZM342.344 394.438C345.791 394.438 348.5 391.729 348.5 388.281C348.5 384.834 345.791 382.125 342.344 382.125C338.896 382.125 336.188 384.834 336.188 388.281C336.188 391.729 338.896 394.438 342.344 394.438ZM366.969 394.438C370.416 394.438 373.125 391.729 373.125 388.281C373.125 384.834 370.416 382.125 366.969 382.125C363.521 382.125 360.812 384.834 360.812 388.281C360.812 391.729 363.521 394.438 366.969 394.438ZM354.656 394.438C358.104 394.438 360.812 391.729 360.812 388.281C360.812 384.834 358.104 382.125 354.656 382.125C351.209 382.125 348.5 384.834 348.5 388.281C348.5 391.729 351.209 394.438 354.656 394.438ZM379.281 406.75C382.729 406.75 385.438 404.041 385.438 400.594C385.438 397.146 382.729 394.438 379.281 394.438C375.834 394.438 373.125 397.146 373.125 400.594C373.125 404.041 375.834 406.75 379.281 406.75ZM317.719 406.75C321.166 406.75 323.875 404.041 323.875 400.594C323.875 397.146 321.166 394.438 317.719 394.438C314.271 394.438 311.562 397.146 311.562 400.594C311.562 404.041 314.271 406.75 317.719 406.75ZM330.031 406.75C333.479 406.75 336.188 404.041 336.188 400.594C336.188 397.146 333.479 394.438 330.031 394.438C326.584 394.438 323.875 397.146 323.875 400.594C323.875 404.041 326.584 406.75 330.031 406.75ZM342.344 406.75C345.791 406.75 348.5 404.041 348.5 400.594C348.5 397.146 345.791 394.438 342.344 394.438C338.896 394.438 336.188 397.146 336.188 400.594C336.188 404.041 338.896 406.75 342.344 406.75ZM305.406 406.75C308.854 406.75 311.562 404.041 311.562 400.594C311.562 397.146 308.854 394.438 305.406 394.438C301.959 394.438 299.25 397.146 299.25 400.594C299.25 404.041 301.959 406.75 305.406 406.75ZM354.656 406.75C358.104 406.75 360.812 404.041 360.812 400.594C360.812 397.146 358.104 394.438 354.656 394.438C351.209 394.438 348.5 397.146 348.5 400.594C348.5 404.041 351.209 406.75 354.656 406.75ZM366.969 406.75C370.416 406.75 373.125 404.041 373.125 400.594C373.125 397.146 370.416 394.438 366.969 394.438C363.521 394.438 360.812 397.146 360.812 400.594C360.812 404.041 363.521 406.75 366.969 406.75ZM293.094 419.062C296.541 419.062 299.25 416.354 299.25 412.906C299.25 409.459 296.541 406.75 293.094 406.75C289.646 406.75 286.938 409.459 286.938 412.906C286.938 416.354 289.646 419.062 293.094 419.062ZM379.281 419.062C382.729 419.062 385.438 416.354 385.438 412.906C385.438 409.459 382.729 406.75 379.281 406.75C375.834 406.75 373.125 409.459 373.125 412.906C373.125 416.354 375.834 419.062 379.281 419.062ZM305.406 419.062C308.854 419.062 311.562 416.354 311.562 412.906C311.562 409.459 308.854 406.75 305.406 406.75C301.959 406.75 299.25 409.459 299.25 412.906C299.25 416.354 301.959 419.062 305.406 419.062ZM366.969 419.062C370.416 419.062 373.125 416.354 373.125 412.906C373.125 409.459 370.416 406.75 366.969 406.75C363.521 406.75 360.812 409.459 360.812 412.906C360.812 416.354 363.521 419.062 366.969 419.062ZM391.594 419.062C395.041 419.062 397.75 416.354 397.75 412.906C397.75 409.459 395.041 406.75 391.594 406.75C388.146 406.75 385.438 409.459 385.438 412.906C385.438 416.354 388.146 419.062 391.594 419.062ZM354.656 419.062C358.104 419.062 360.812 416.354 360.812 412.906C360.812 409.459 358.104 406.75 354.656 406.75C351.209 406.75 348.5 409.459 348.5 412.906C348.5 416.354 351.209 419.062 354.656 419.062ZM317.719 419.062C321.166 419.062 323.875 416.354 323.875 412.906C323.875 409.459 321.166 406.75 317.719 406.75C314.271 406.75 311.562 409.459 311.562 412.906C311.562 416.354 314.271 419.062 317.719 419.062ZM330.031 419.062C333.479 419.062 336.188 416.354 336.188 412.906C336.188 409.459 333.479 406.75 330.031 406.75C326.584 406.75 323.875 409.459 323.875 412.906C323.875 416.354 326.584 419.062 330.031 419.062ZM330.031 431.375C333.479 431.375 336.188 428.666 336.188 425.219C336.188 421.771 333.479 419.062 330.031 419.062C326.584 419.062 323.875 421.771 323.875 425.219C323.875 428.666 326.584 431.375 330.031 431.375ZM317.719 431.375C321.166 431.375 323.875 428.666 323.875 425.219C323.875 421.771 321.166 419.062 317.719 419.062C314.271 419.062 311.562 421.771 311.562 425.219C311.562 428.666 314.271 431.375 317.719 431.375ZM379.281 431.375C382.729 431.375 385.438 428.666 385.438 425.219C385.438 421.771 382.729 419.062 379.281 419.062C375.834 419.062 373.125 421.771 373.125 425.219C373.125 428.666 375.834 431.375 379.281 431.375ZM354.656 431.375C358.104 431.375 360.812 428.666 360.812 425.219C360.812 421.771 358.104 419.062 354.656 419.062C351.209 419.062 348.5 421.771 348.5 425.219C348.5 428.666 351.209 431.375 354.656 431.375ZM391.594 431.375C395.041 431.375 397.75 428.666 397.75 425.219C397.75 421.771 395.041 419.062 391.594 419.062C388.146 419.062 385.438 421.771 385.438 425.219C385.438 428.666 388.146 431.375 391.594 431.375ZM305.406 431.375C308.854 431.375 311.562 428.666 311.562 425.219C311.562 421.771 308.854 419.062 305.406 419.062C301.959 419.062 299.25 421.771 299.25 425.219C299.25 428.666 301.959 431.375 305.406 431.375ZM366.969 431.375C370.416 431.375 373.125 428.666 373.125 425.219C373.125 421.771 370.416 419.062 366.969 419.062C363.521 419.062 360.812 421.771 360.812 425.219C360.812 428.666 363.521 431.375 366.969 431.375ZM293.094 431.375C296.541 431.375 299.25 428.666 299.25 425.219C299.25 421.771 296.541 419.062 293.094 419.062C289.646 419.062 286.938 421.771 286.938 425.219C286.938 428.666 289.646 431.375 293.094 431.375ZM280.781 443.688C284.229 443.688 286.938 440.979 286.938 437.531C286.938 434.084 284.229 431.375 280.781 431.375C277.334 431.375 274.625 434.084 274.625 437.531C274.625 440.979 277.334 443.688 280.781 443.688ZM317.719 443.688C321.166 443.688 323.875 440.979 323.875 437.531C323.875 434.084 321.166 431.375 317.719 431.375C314.271 431.375 311.562 434.084 311.562 437.531C311.562 440.979 314.271 443.688 317.719 443.688ZM305.406 443.688C308.854 443.688 311.562 440.979 311.562 437.531C311.562 434.084 308.854 431.375 305.406 431.375C301.959 431.375 299.25 434.084 299.25 437.531C299.25 440.979 301.959 443.688 305.406 443.688ZM379.281 443.688C382.729 443.688 385.438 440.979 385.438 437.531C385.438 434.084 382.729 431.375 379.281 431.375C375.834 431.375 373.125 434.084 373.125 437.531C373.125 440.979 375.834 443.688 379.281 443.688ZM391.594 443.688C395.041 443.688 397.75 440.979 397.75 437.531C397.75 434.084 395.041 431.375 391.594 431.375C388.146 431.375 385.438 434.084 385.438 437.531C385.438 440.979 388.146 443.688 391.594 443.688ZM403.906 443.688C407.354 443.688 410.062 440.979 410.062 437.531C410.062 434.084 407.354 431.375 403.906 431.375C400.459 431.375 397.75 434.084 397.75 437.531C397.75 440.979 400.459 443.688 403.906 443.688ZM293.094 443.688C296.541 443.688 299.25 440.979 299.25 437.531C299.25 434.084 296.541 431.375 293.094 431.375C289.646 431.375 286.938 434.084 286.938 437.531C286.938 440.979 289.646 443.688 293.094 443.688ZM366.969 443.688C370.416 443.688 373.125 440.979 373.125 437.531C373.125 434.084 370.416 431.375 366.969 431.375C363.521 431.375 360.812 434.084 360.812 437.531C360.812 440.979 363.521 443.688 366.969 443.688ZM317.719 456C321.166 456 323.875 453.291 323.875 449.844C323.875 446.396 321.166 443.688 317.719 443.688C314.271 443.688 311.562 446.396 311.562 449.844C311.562 453.291 314.271 456 317.719 456ZM305.406 456C308.854 456 311.562 453.291 311.562 449.844C311.562 446.396 308.854 443.688 305.406 443.688C301.959 443.688 299.25 446.396 299.25 449.844C299.25 453.291 301.959 456 305.406 456ZM293.094 456C296.541 456 299.25 453.291 299.25 449.844C299.25 446.396 296.541 443.688 293.094 443.688C289.646 443.688 286.938 446.396 286.938 449.844C286.938 453.291 289.646 456 293.094 456ZM366.969 456C370.416 456 373.125 453.291 373.125 449.844C373.125 446.396 370.416 443.688 366.969 443.688C363.521 443.688 360.812 446.396 360.812 449.844C360.812 453.291 363.521 456 366.969 456ZM379.281 456C382.729 456 385.438 453.291 385.438 449.844C385.438 446.396 382.729 443.688 379.281 443.688C375.834 443.688 373.125 446.396 373.125 449.844C373.125 453.291 375.834 456 379.281 456ZM391.594 456C395.041 456 397.75 453.291 397.75 449.844C397.75 446.396 395.041 443.688 391.594 443.688C388.146 443.688 385.438 446.396 385.438 449.844C385.438 453.291 388.146 456 391.594 456ZM403.906 456C407.354 456 410.062 453.291 410.062 449.844C410.062 446.396 407.354 443.688 403.906 443.688C400.459 443.688 397.75 446.396 397.75 449.844C397.75 453.291 400.459 456 403.906 456ZM280.781 456C284.229 456 286.938 453.291 286.938 449.844C286.938 446.396 284.229 443.688 280.781 443.688C277.334 443.688 274.625 446.396 274.625 449.844C274.625 453.291 277.334 456 280.781 456Z" fill="white"/>
</svg>
